<?xml version="1.0" encoding="UTF-8" standalone="no"?>
<svg
   xmlns:dc="http://purl.org/dc/elements/1.1/"
   xmlns:cc="http://creativecommons.org/ns#"
   xmlns:rdf="http://www.w3.org/1999/02/22-rdf-syntax-ns#"
   xmlns:svg="http://www.w3.org/2000/svg"
   xmlns="http://www.w3.org/2000/svg"
   xmlns:sodipodi="http://sodipodi.sourceforge.net/DTD/sodipodi-0.dtd"
   xmlns:inkscape="http://www.inkscape.org/namespaces/inkscape"
   width="210mm"
   height="297mm"
   viewBox="0 0 210 297"
   version="1.1"
   id="svg8"
   inkscape:version="1.0.2-2 (e86c870879, 2021-01-15)"
   sodipodi:docname="HamsteroidLogo.svg"
   inkscape:export-filename="C:\Users\Moa\Desktop\Mascotte.png"
   inkscape:export-xdpi="197.82137"
   inkscape:export-ydpi="197.82137">
  <defs
     id="defs2" />
  <sodipodi:namedview
     id="base"
     pagecolor="#ffffff"
     bordercolor="#666666"
     borderopacity="1.0"
     inkscape:pageopacity="0.0"
     inkscape:pageshadow="2"
     inkscape:zoom="0.70000001"
     inkscape:cx="137.54506"
     inkscape:cy="403.49256"
     inkscape:document-units="mm"
     inkscape:current-layer="layer4"
     inkscape:document-rotation="0"
     showgrid="false"
     inkscape:window-width="2560"
     inkscape:window-height="1377"
     inkscape:window-x="-8"
     inkscape:window-y="-8"
     inkscape:window-maximized="1" />
  <metadata
     id="metadata5">
    <rdf:RDF>
      <cc:Work
         rdf:about="">
        <dc:format>image/svg+xml</dc:format>
        <dc:type
           rdf:resource="http://purl.org/dc/dcmitype/StillImage" />
        <dc:title></dc:title>
      </cc:Work>
    </rdf:RDF>
  </metadata>
  <g
     inkscape:label="Calque 1"
     inkscape:groupmode="layer"
     id="layer1"
     style="display:inline" />
  <g
     inkscape:groupmode="layer"
     id="layer4"
     inkscape:label="Col2"
     style="display:inline">
    <path
       style="fill:#1e349b;fill-opacity:1;stroke:#47aaad;stroke-width:2.88333;stroke-miterlimit:4;stroke-dasharray:none;stroke-opacity:1"
       d="m 106.55322,208.9271 c 2.35377,-2.08828 3.1805,-3.44728 3.37705,-5.55195 0.24041,-2.56853 -0.73167,-4.76586 -2.76921,-6.26614 -1.42739,-1.05076 -2.35403,-1.37562 -3.92544,-1.37562 -1.42206,0 -2.59342,0.34378 -3.646752,1.06974 -1.7964,1.23841 -8.50851,8.54592 -12.71191,12.86872 -0.33738,0.34697 -0.55192,1.22177 -1.00393,1.04885 -2.1323,-0.81572 -4.96204,-2.17009 -7.31282,-3.31868 -1.2872,-0.63142 -2.5245,-1.02959 -2.63752,-1.14768 -0.55952,-0.58465 -0.20285,-1.05878 23.49187,-24.67012 13.231102,-13.1846 25.939042,-25.8083 28.239972,-28.05248 4.91485,-4.79395 5.32582,-5.41469 5.32235,-8.04181 -0.003,-2.04732 -0.61538,-3.4642 -2.12527,-4.9115 -2.64703,-2.53803 -6.28686,-2.56249 -9.12191,-0.0667 -1.1065,0.97606 -25.806332,25.49443 -28.546872,28.33704 -0.49593,0.51323 -7.24916,7.31838 -15.00915,15.12211 -12.90097,12.97375 -14.14215,14.16306 -14.496,13.89032 -2.87758,-2.21821 -8.5756,-8.24934 -11.18242,-11.83637 -3.84571,-4.9599 -6.82122,-10.41068 -9.28217,-16.26241 l -0.29548,-0.73001 2.91746,-2.76394 c 6.44328,-6.10479 5.46626,-6.27647 55.300702,-54.98802 l 28.88529,-28.23444 c 2.0596,0.910139 9.11797,4.316571 9.45288,4.632907 0.0874,0.08423 -0.80747,1.113171 -1.99033,2.288968 -1.1826,1.17606 -4.34695,4.344291 -7.03197,7.040613 -2.685,2.696308 -5.59072,5.595512 -6.45712,6.442622 -2.68461,2.62476 -13.52077,13.55879 -17.99996,18.16259 -2.34442,2.40957 -6.147142,6.28428 -8.450362,8.61029 -17.74452,17.91961 -16.41266,16.30776 -16.41632,19.86614 -10e-4,1.9158 0.0602,2.26661 0.57465,3.25086 1.43478,2.74439 4.88886,4.17705 7.68893,3.18906 1.29046,-0.45521 2.00248,-1.0883 7.8307,-6.96208 2.834742,-2.85689 11.946162,-12.01682 20.247372,-20.35555 l 15.09324,-15.16114 1.35493,1.34475 c 2.00871,1.99353 2.90804,2.5288 4.54205,2.70393 1.56107,0.16716 2.60548,0.0271 3.86765,-0.52928 0.81417,-0.35774 2.21052,-1.66826 12.31136,-11.55906 1.59829,-1.56516 2.55815,-2.86688 3.06245,-2.84558 0.41442,0.0175 0.602,0.6521 1.14493,1.4496 1.11316,1.63266 2.65234,3.80673 4.10455,5.79786 0.85387,1.17066 0.94262,1.39045 0.69721,1.72585 -0.155,0.21087 -3.77808,3.85265 -8.05236,8.0916 -5.01177,4.97059 -7.96234,8.05858 -8.30945,8.6963 -0.61402,1.12709 -1.0218,3.26489 -0.85193,4.46082 0.33298,2.34227 1.90859,4.65839 3.81868,5.61232 1.18637,0.59272 3.22613,0.80661 4.56313,0.47859 0.56934,-0.13877 1.8853,-0.65345 2.92534,-1.14412 2.06543,-0.97281 1.90224,-0.97002 4.44432,-0.0762 0.5319,0.18743 1.62398,0.53595 2.4276,0.77704 4.22792,1.26775 6.59213,4.64778 6.59213,9.42509 0,1.91246 -0.0604,2.18865 -0.72659,3.58829 -1.31569,2.74552 -3.40033,4.18345 -6.29128,4.33948 -1.82371,0.0983 -2.92588,-0.34739 -4.61274,-1.86034 -1.58442,-1.42229 -4.32115,-2.95705 -6.01184,-3.37131 -1.08649,-0.26628 -2.04246,-0.33656 -3.57095,-0.25952 -3.84688,0.19104 -5.40132,1.05436 -9.95424,5.52955 -1.62235,1.59455 -6.44249,6.32994 -10.7115,10.52307 -4.26904,4.19309 -8.11696,8.0055 -8.551,8.47201 -1.11743,1.20135 -1.47389,1.55287 -3.15932,3.11481 -2.08732,1.93449 -2.86181,3.02278 -3.33972,4.692 -0.44714,1.56364 -0.35487,2.76547 0.33563,4.40589 0.83022,1.96869 3.36465,3.79889 5.70763,4.12108 0.80332,0.11046 1.39468,0.0361 2.50668,-0.33566 1.68624,-0.55533 0.3997,0.63407 15.1623,-14.02311 6.3799,-6.3344 9.99542,-9.77009 10.56047,-10.03519 1.02863,-0.48256 2.42666,-0.52591 3.43136,-0.10588 0.40327,0.16852 1.34242,0.86977 2.08702,1.55864 0.74429,0.6886 1.83294,1.63808 2.41872,2.10964 0.586,0.47124 1.22346,1.00228 1.41721,1.17944 1.43937,1.31664 2.31328,2.0748 4.33627,3.76248 1.26983,1.05915 2.3087,2.03214 2.3087,2.16236 0,0.12933 -0.38659,0.83444 -0.85904,1.56566 -0.47188,0.73081 -0.85901,1.36795 -0.85901,1.4155 0,0.22437 -3.19549,4.72741 -4.98405,7.02317 -1.69954,2.18159 -6.69779,7.42049 -8.31505,8.7154 -0.40415,0.32306 -1.22611,1.03292 -1.82545,1.57499 -1.68895,1.52793 -5.44427,4.23157 -7.57647,5.45459 -0.73329,0.42083 -1.39211,0.86053 -1.46479,0.97804 -0.0756,0.11712 -1.16399,0.73159 -2.42534,1.36382 -1.26144,0.63204 -2.58345,1.30317 -2.93786,1.49024 -1.53414,0.81008 -5.86694,2.56795 -8.22152,3.33562 -4.72805,1.54166 -6.78389,2.09814 -8.74423,2.36699 -0.94487,0.12892 -2.49114,0.38163 -3.43601,0.55934 -2.00807,0.37711 -11.18419,0.4064 -11.55385,0.29997 -0.36967,-0.10644 1.30034,-1.77844 5.20772,-5.24476 z M 69.217888,177.35747 c 0.47714,-1.36165 0.38176,-4.09612 -0.18235,-5.24948 -0.63453,-1.29727 -2.09236,-2.76242 -3.27473,-3.29205 -1.4949,-0.66937 -3.82506,-0.60538 -5.47795,0.15049 -1.70946,0.78218 -2.37841,1.45 -3.24638,3.24267 -1.01571,2.09783 -1.00734,3.483 0.0342,5.61912 0.79679,1.63437 1.7207,2.55055 2.94764,3.09931 1.22694,0.54875 2.02691,0.62938 2.89253,0.62938 1.30945,0 1.78085,-0.10449 3.02562,-0.73276 1.24478,-0.62826 2.86816,-2.28719 3.28137,-3.46668 z m -28.59192,-28.71165 c -0.64101,-0.3226 -1.11405,-0.76784 -1.42905,-1.34434 -0.45066,-0.82427 -0.46419,-1.01026 -0.31558,-4.3411 l 0.15545,-3.47984 3.42948,-3.49711 c 1.8862,-1.92349 10.91755,-11.0135 20.06965,-20.20007 11.29817,-11.34067 16.9216,-16.839085 17.51675,-17.127182 1.60887,-0.778892 4.07511,-0.417678 5.36061,0.783083 0.2374,0.222126 0.72062,0.789659 1.07374,1.262619 0.61472,0.82184 0.6414,0.95304 0.6414,3.04235 0,1.9272 -0.0602,2.25972 -0.51297,2.98162 -0.45277,0.7219 -14.3061,14.69565 -31.5328,31.96377 -5.71147,5.72504 -10.12058,9.9772 -10.52206,10.14707 -1.07225,0.45457 -2.82437,0.36901 -3.93441,-0.19105 z"
       id="path950"
       sodipodi:nodetypes="sssssascssscssssscccsscsssssscsssscssssssscssssssssscsssssssssssssssssssssssssssssssscssssssscscsssscsssssscssss" />
    <path
       style="font-variation-settings:normal;opacity:1;vector-effect:none;fill:#e493ff;fill-opacity:1;stroke:#6a4476;stroke-width:1.03453;stroke-linecap:butt;stroke-linejoin:miter;stroke-miterlimit:4;stroke-dasharray:none;stroke-dashoffset:0;stroke-opacity:1;stop-color:#000000;stop-opacity:1"
       d="m 59.973678,180.61563 c -1.92557,-1.02538 -3.38678,-3.41023 -3.39113,-5.53464 -0.009,-5.39303 6.37649,-8.55996 10.37021,-5.14153 1.79768,1.53881 2.31944,2.67812 2.31944,5.06507 0,1.59468 -0.1567,2.22961 -0.78364,3.17711 -1.97288,2.98121 -5.56121,4.00701 -8.51488,2.43399 z"
       id="path952" />
  </g>
  <g
     inkscape:groupmode="layer"
     id="layer3"
     inkscape:label="Col1"
     style="display:inline" />
  <g
     inkscape:groupmode="layer"
     id="layer5"
     inkscape:label="Helmet"
     style="display:inline" />
  <g
     inkscape:groupmode="layer"
     id="layer2"
     inkscape:label="Lineart"
     style="display:inline" />
</svg>
